<svg preserveAspectRatio="none" overflow="visible" style="display: block;" width="15.676" height="15" viewBox="0 0 15.676 15" fill="none" xmlns="http://www.w3.org/2000/svg">
<g id="icon/question">
<path id="&#238;&#132;&#181;" d="M2.64533 10.7283L2.29262 11.081C0.881777 9.66035 0 7.70085 0 5.5454C0 3.38014 0.881777 1.42064 2.30242 0L2.64533 0.352711C1.31287 1.68517 0.489876 3.51731 0.489876 5.5454C0.489876 7.56368 1.31287 9.40562 2.64533 10.7283ZM13.3736 11.0908L13.0307 10.7381C14.3632 9.40562 15.1862 7.57348 15.1862 5.5454C15.1862 3.52711 14.3632 1.68517 13.0307 0.352711L13.3834 0.00979752C14.7943 1.43044 15.676 3.38994 15.676 5.5454C15.676 7.71065 14.7943 9.67015 13.3736 11.0908ZM10.7773 12.0607H4.89876V9.4644C3.71326 8.57283 2.93926 7.14239 2.93926 5.5454C2.93926 2.84128 5.1339 0.646636 7.83801 0.646636C10.5421 0.646636 12.7368 2.84128 12.7368 5.5454C12.7368 7.14239 11.9628 8.57283 10.7773 9.4644V12.0607ZM5.38863 9.20967V11.5709H10.2874V9.20967C11.5219 8.38668 12.2469 7.01502 12.2469 5.5454C12.2469 3.11561 10.2678 1.13651 7.83801 1.13651C5.40823 1.13651 3.42913 3.11561 3.42913 5.5454C3.42913 7.01502 4.15415 8.38668 5.38863 9.20967ZM10.7773 15H4.89876V14.5101H10.7773V15Z" fill="black"/>
</g>
</svg>
